<mxfile host="app.diagrams.net" modified="2023-12-07T06:26:02.272Z" agent="Mozilla/5.0 (Macintosh; Intel Mac OS X 10_15_7) AppleWebKit/537.36 (KHTML, like Gecko) Chrome/119.0.0.0 Safari/537.36" version="22.1.7" etag="QNP0NAkbqfSci6O9TcRW" type="github">
  <diagram name="Page-1" id="7Ce-H9aC_QKZED_Ohefz">
    <mxGraphModel>
      <root>
        <mxCell id="0" />
        <mxCell id="1" parent="0" />
      </root>
    </mxGraphModel>
  </diagram>
</mxfile>
